<svg width="32" height="32" viewBox="0 0 32 32" fill="none" xmlns="http://www.w3.org/2000/svg">
<g clip-path="url(#clip0_275_2823)">
<path d="M16 2C8.26967 2 2 8.2685 2 16C2 22.1857 6.011 27.4333 11.5748 29.2848C12.2737 29.4143 12.5 28.9803 12.5 28.6117V26.0053C8.60567 26.8523 7.79483 24.3533 7.79483 24.3533C7.15783 22.7352 6.23967 22.3047 6.23967 22.3047C4.96917 21.4355 6.3365 21.4542 6.3365 21.4542C7.74233 21.5522 8.482 22.8973 8.482 22.8973C9.73033 25.037 11.7568 24.4187 12.556 24.0605C12.6808 23.1563 13.0437 22.538 13.445 22.1892C10.3358 21.8333 7.06683 20.6328 7.06683 15.2697C7.06683 13.7402 7.614 12.4918 8.50883 11.5118C8.36417 11.1583 7.88467 9.73383 8.64533 7.8065C8.64533 7.8065 9.82133 7.43083 12.4965 9.2415C13.613 8.93117 14.81 8.776 16 8.77017C17.19 8.776 18.3882 8.93117 19.507 9.2415C22.1798 7.43083 23.3535 7.8065 23.3535 7.8065C24.1153 9.735 23.6358 11.1595 23.4912 11.5118C24.3895 12.4918 24.932 13.7413 24.932 15.2697C24.932 20.6468 21.6572 21.831 18.5398 22.1775C19.0415 22.6115 19.5 23.4632 19.5 24.7698V28.6117C19.5 28.9838 19.724 29.4213 20.4345 29.2837C25.9937 27.4298 30 22.1833 30 16C30 8.2685 23.7315 2 16 2Z" fill="white"/>
</g>
<defs>
<clipPath id="clip0_275_2823">
<rect width="28" height="28" fill="white" transform="translate(2 2)"/>
</clipPath>
</defs>
</svg>
