<svg width="2200" height="184" viewBox="0 0 2200 184" fill="none" xmlns="http://www.w3.org/2000/svg">
<g opacity="0.07">
<path d="M183.333 91.6667C183.333 109.797 177.957 127.519 167.885 142.594C157.812 157.668 143.496 169.418 126.746 176.356C109.996 183.294 91.565 185.109 73.7834 181.572C56.0018 178.035 39.6684 169.305 26.8485 156.485C14.0287 143.665 5.29833 127.332 1.76135 109.55C-1.77563 91.7683 0.0396766 73.3372 6.97771 56.5873C13.9157 39.8375 25.6649 25.5211 40.7394 15.4486C55.8139 5.37616 73.5367 -2.16198e-07 91.6667 0V36.6667C80.7887 36.6667 70.155 39.8924 61.1103 45.9358C52.0656 51.9793 45.0161 60.5691 40.8533 70.6191C36.6905 80.669 35.6013 91.7277 37.7235 102.397C39.8457 113.066 45.0839 122.866 52.7758 130.558C60.4677 138.249 70.2677 143.488 80.9367 145.61C91.6057 147.732 102.664 146.643 112.714 142.48C122.764 138.317 131.354 131.268 137.397 122.223C143.441 113.178 146.667 102.545 146.667 91.6667H183.333Z" fill="white"/>
<path d="M183.333 91.6666C183.333 73.5367 188.709 55.8139 198.782 40.7394C208.854 25.6649 223.171 13.9157 239.921 6.97769C256.671 0.0396576 275.102 -1.77565 292.883 1.76134C310.665 5.29831 326.998 14.0287 339.818 26.8485C352.638 39.6684 361.368 56.0018 364.905 73.7834C368.442 91.565 366.627 109.996 359.689 126.746C352.751 143.496 341.002 157.812 325.927 167.885C310.853 177.957 293.13 183.333 275 183.333V146.667C285.878 146.667 296.512 143.441 305.556 137.397C314.601 131.354 321.651 122.764 325.813 112.714C329.976 102.664 331.065 91.6056 328.943 80.9367C326.821 70.2677 321.583 60.4677 313.891 52.7758C306.199 45.0839 296.399 39.8456 285.73 37.7235C275.061 35.6013 264.002 36.6905 253.952 40.8533C243.902 45.0161 235.313 52.0656 229.269 61.1103C223.226 70.155 220 80.7887 220 91.6666L183.333 91.6666Z" fill="white"/>
<path d="M550 91.6667C550 109.797 544.624 127.519 534.551 142.594C524.479 157.668 510.163 169.418 493.413 176.356C476.663 183.294 458.232 185.109 440.45 181.572C422.668 178.035 406.335 169.305 393.515 156.485C380.695 143.665 371.965 127.332 368.428 109.55C364.891 91.7683 366.706 73.3372 373.644 56.5873C380.582 39.8375 392.332 25.5211 407.406 15.4486C422.481 5.37616 440.203 -2.16198e-07 458.333 0V36.6667C447.455 36.6667 436.822 39.8924 427.777 45.9358C418.732 51.9793 411.683 60.5691 407.52 70.6191C403.357 80.669 402.268 91.7277 404.39 102.397C406.512 113.066 411.751 122.866 419.442 130.558C427.134 138.249 436.934 143.488 447.603 145.61C458.272 147.732 469.331 146.643 479.381 142.48C489.431 138.317 498.021 131.268 504.064 122.223C510.108 113.178 513.333 102.545 513.333 91.6667H550Z" fill="white"/>
<path d="M550 91.6666C550 73.5367 555.376 55.8139 565.449 40.7394C575.521 25.6649 589.837 13.9157 606.587 6.97769C623.337 0.0396576 641.768 -1.77565 659.55 1.76134C677.332 5.29831 693.665 14.0287 706.485 26.8485C719.305 39.6684 728.035 56.0018 731.572 73.7834C735.109 91.565 733.294 109.996 726.356 126.746C719.418 143.496 707.668 157.812 692.594 167.885C677.519 177.957 659.797 183.333 641.667 183.333V146.667C652.545 146.667 663.178 143.441 672.223 137.397C681.268 131.354 688.317 122.764 692.48 112.714C696.643 102.664 697.732 91.6056 695.61 80.9367C693.488 70.2677 688.249 60.4677 680.558 52.7758C672.866 45.0839 663.066 39.8456 652.397 37.7235C641.728 35.6013 630.669 36.6905 620.619 40.8533C610.569 45.0161 601.979 52.0656 595.936 61.1103C589.892 70.155 586.667 80.7887 586.667 91.6666L550 91.6666Z" fill="white"/>
</g>
<g opacity="0.07">
<path d="M916.667 91.6667C916.667 109.797 911.29 127.519 901.218 142.594C891.146 157.668 876.829 169.418 860.079 176.356C843.329 183.294 824.898 185.109 807.117 181.572C789.335 178.035 773.002 169.305 760.182 156.485C747.362 143.665 738.632 127.332 735.095 109.55C731.558 91.7683 733.373 73.3372 740.311 56.5873C747.249 39.8375 758.998 25.5211 774.073 15.4486C789.147 5.37616 806.87 -2.16198e-07 825 0V36.6667C814.122 36.6667 803.488 39.8924 794.444 45.9358C785.399 51.9793 778.349 60.5691 774.187 70.6191C770.024 80.669 768.935 91.7277 771.057 102.397C773.179 113.066 778.417 122.866 786.109 130.558C793.801 138.249 803.601 143.488 814.27 145.61C824.939 147.732 835.998 146.643 846.048 142.48C856.098 138.317 864.687 131.268 870.731 122.223C876.774 113.178 880 102.545 880 91.6667H916.667Z" fill="white"/>
<path d="M916.667 91.6666C916.667 73.5367 922.043 55.8139 932.115 40.7394C942.188 25.6649 956.504 13.9157 973.254 6.97769C990.004 0.0396576 1008.44 -1.77565 1026.22 1.76134C1044 5.29831 1060.33 14.0287 1073.15 26.8485C1085.97 39.6684 1094.7 56.0018 1098.24 73.7834C1101.78 91.565 1099.96 109.996 1093.02 126.746C1086.08 143.496 1074.34 157.812 1059.26 167.885C1044.19 177.957 1026.46 183.333 1008.33 183.333V146.667C1019.21 146.667 1029.84 143.441 1038.89 137.397C1047.93 131.354 1054.98 122.764 1059.15 112.714C1063.31 102.664 1064.4 91.6056 1062.28 80.9367C1060.15 70.2677 1054.92 60.4677 1047.22 52.7758C1039.53 45.0839 1029.73 39.8456 1019.06 37.7235C1008.39 35.6013 997.336 36.6905 987.286 40.8533C977.236 45.0161 968.646 52.0656 962.603 61.1103C956.559 70.155 953.333 80.7887 953.333 91.6666L916.667 91.6666Z" fill="white"/>
<path d="M1283.33 91.6667C1283.33 109.797 1277.96 127.519 1267.88 142.594C1257.81 157.668 1243.5 169.418 1226.75 176.356C1210 183.294 1191.56 185.109 1173.78 181.572C1156 178.035 1139.67 169.305 1126.85 156.485C1114.03 143.665 1105.3 127.332 1101.76 109.55C1098.22 91.7683 1100.04 73.3372 1106.98 56.5873C1113.92 39.8375 1125.66 25.5211 1140.74 15.4486C1155.81 5.37616 1173.54 -2.16198e-07 1191.67 0V36.6667C1180.79 36.6667 1170.16 39.8924 1161.11 45.9358C1152.07 51.9793 1145.02 60.5691 1140.85 70.6191C1136.69 80.669 1135.6 91.7277 1137.72 102.397C1139.85 113.066 1145.08 122.866 1152.78 130.558C1160.47 138.249 1170.27 143.488 1180.94 145.61C1191.61 147.732 1202.66 146.643 1212.71 142.48C1222.76 138.317 1231.35 131.268 1237.4 122.223C1243.44 113.178 1246.67 102.545 1246.67 91.6667H1283.33Z" fill="white"/>
<path d="M1283.33 91.6666C1283.33 73.5367 1288.71 55.8139 1298.78 40.7394C1308.85 25.6649 1323.17 13.9157 1339.92 6.97769C1356.67 0.0396576 1375.1 -1.77565 1392.88 1.76134C1410.66 5.29831 1427 14.0287 1439.82 26.8485C1452.64 39.6684 1461.37 56.0018 1464.91 73.7834C1468.44 91.565 1466.63 109.996 1459.69 126.746C1452.75 143.496 1441 157.812 1425.93 167.885C1410.85 177.957 1393.13 183.333 1375 183.333V146.667C1385.88 146.667 1396.51 143.441 1405.56 137.397C1414.6 131.354 1421.65 122.764 1425.81 112.714C1429.98 102.664 1431.07 91.6056 1428.94 80.9367C1426.82 70.2677 1421.58 60.4677 1413.89 52.7758C1406.2 45.0839 1396.4 39.8456 1385.73 37.7235C1375.06 35.6013 1364 36.6905 1353.95 40.8533C1343.9 45.0161 1335.31 52.0656 1329.27 61.1103C1323.23 70.155 1320 80.7887 1320 91.6666L1283.33 91.6666Z" fill="white"/>
</g>
<g opacity="0.07">
<path d="M1650 91.6667C1650 109.797 1644.62 127.519 1634.55 142.594C1624.48 157.668 1610.16 169.418 1593.41 176.356C1576.66 183.294 1558.23 185.109 1540.45 181.572C1522.67 178.035 1506.33 169.305 1493.52 156.485C1480.7 143.665 1471.96 127.332 1468.43 109.55C1464.89 91.7683 1466.71 73.3372 1473.64 56.5873C1480.58 39.8375 1492.33 25.5211 1507.41 15.4486C1522.48 5.37616 1540.2 -2.16198e-07 1558.33 0V36.6667C1547.46 36.6667 1536.82 39.8924 1527.78 45.9358C1518.73 51.9793 1511.68 60.5691 1507.52 70.6191C1503.36 80.669 1502.27 91.7277 1504.39 102.397C1506.51 113.066 1511.75 122.866 1519.44 130.558C1527.13 138.249 1536.93 143.488 1547.6 145.61C1558.27 147.732 1569.33 146.643 1579.38 142.48C1589.43 138.317 1598.02 131.268 1604.06 122.223C1610.11 113.178 1613.33 102.545 1613.33 91.6667H1650Z" fill="white"/>
<path d="M1650 91.6666C1650 73.5367 1655.38 55.8139 1665.45 40.7394C1675.52 25.6649 1689.84 13.9157 1706.59 6.97769C1723.34 0.0396576 1741.77 -1.77565 1759.55 1.76134C1777.33 5.29831 1793.67 14.0287 1806.48 26.8485C1819.3 39.6684 1828.04 56.0018 1831.57 73.7834C1835.11 91.565 1833.29 109.996 1826.36 126.746C1819.42 143.496 1807.67 157.812 1792.59 167.885C1777.52 177.957 1759.8 183.333 1741.67 183.333V146.667C1752.54 146.667 1763.18 143.441 1772.22 137.397C1781.27 131.354 1788.32 122.764 1792.48 112.714C1796.64 102.664 1797.73 91.6056 1795.61 80.9367C1793.49 70.2677 1788.25 60.4677 1780.56 52.7758C1772.87 45.0839 1763.07 39.8456 1752.4 37.7235C1741.73 35.6013 1730.67 36.6905 1720.62 40.8533C1710.57 45.0161 1701.98 52.0656 1695.94 61.1103C1689.89 70.155 1686.67 80.7887 1686.67 91.6666L1650 91.6666Z" fill="white"/>
<path d="M2016.67 91.6667C2016.67 109.797 2011.29 127.519 2001.22 142.594C1991.15 157.668 1976.83 169.418 1960.08 176.356C1943.33 183.294 1924.9 185.109 1907.12 181.572C1889.34 178.035 1873 169.305 1860.18 156.485C1847.36 143.665 1838.63 127.332 1835.09 109.55C1831.56 91.7683 1833.37 73.3372 1840.31 56.5873C1847.25 39.8375 1859 25.5211 1874.07 15.4486C1889.15 5.37616 1906.87 -2.16198e-07 1925 0V36.6667C1914.12 36.6667 1903.49 39.8924 1894.44 45.9358C1885.4 51.9793 1878.35 60.5691 1874.19 70.6191C1870.02 80.669 1868.93 91.7277 1871.06 102.397C1873.18 113.066 1878.42 122.866 1886.11 130.558C1893.8 138.249 1903.6 143.488 1914.27 145.61C1924.94 147.732 1936 146.643 1946.05 142.48C1956.1 138.317 1964.69 131.268 1970.73 122.223C1976.77 113.178 1980 102.545 1980 91.6667H2016.67Z" fill="white"/>
<path d="M2016.67 91.6666C2016.67 73.5367 2022.04 55.8139 2032.12 40.7394C2042.19 25.6649 2056.5 13.9157 2073.25 6.97769C2090 0.0396576 2108.44 -1.77565 2126.22 1.76134C2144 5.29831 2160.33 14.0287 2173.15 26.8485C2185.97 39.6684 2194.7 56.0018 2198.24 73.7834C2201.78 91.565 2199.96 109.996 2193.02 126.746C2186.08 143.496 2174.34 157.812 2159.26 167.885C2144.19 177.957 2126.46 183.333 2108.33 183.333V146.667C2119.21 146.667 2129.84 143.441 2138.89 137.397C2147.93 131.354 2154.98 122.764 2159.15 112.714C2163.31 102.664 2164.4 91.6056 2162.28 80.9367C2160.15 70.2677 2154.92 60.4677 2147.22 52.7758C2139.53 45.0839 2129.73 39.8456 2119.06 37.7235C2108.39 35.6013 2097.34 36.6905 2087.29 40.8533C2077.24 45.0161 2068.65 52.0656 2062.6 61.1103C2056.56 70.155 2053.33 80.7887 2053.33 91.6666L2016.67 91.6666Z" fill="white"/>
</g>
</svg>
