<svg width="700" height="700" viewBox="0 0 700 700" fill="none" xmlns="http://www.w3.org/2000/svg">
<g clip-path="url(#clip0_491_901)">
<path d="M463.466 338.786C486.214 350.16 504.016 366.972 516.873 389.225C530.224 410.983 536.9 435.955 536.9 464.141C536.9 504.691 521.324 539.058 490.17 567.245C459.511 595.431 421.928 609.524 377.424 609.524H163.8V90.3H372.973C416.489 90.3 452.341 103.157 480.527 128.871C509.208 154.09 523.548 185.739 523.548 223.815C523.548 246.562 518.109 268.567 507.23 289.831C496.351 310.6 481.763 326.918 463.466 338.786ZM438.989 236.424C438.989 216.644 432.066 200.573 418.22 188.211C404.869 175.354 388.055 168.925 367.781 168.925H247.618V303.924H367.781C388.55 303.924 405.61 297.495 418.962 284.638C432.313 271.781 438.989 255.71 438.989 236.424ZM372.231 527.932C394.978 527.932 413.522 521.009 427.863 507.163C442.697 493.317 450.115 475.763 450.115 454.499C450.115 433.236 442.697 415.681 427.863 401.835C413.522 387.989 394.978 381.066 372.231 381.066H247.618V527.932H372.231Z" fill="black"/>
</g>
<defs>
<clipPath id="clip0_491_901">
<rect width="700" height="700" fill="white"/>
</clipPath>
</defs>
</svg>
