<svg width="113" height="24" viewBox="0 0 113 24" fill="none" xmlns="http://www.w3.org/2000/svg">
<path d="M9.832 10.24C10.568 10.608 11.144 11.152 11.56 11.872C11.992 12.576 12.208 13.384 12.208 14.296C12.208 15.608 11.704 16.72 10.696 17.632C9.704 18.544 8.488 19 7.048 19H0.136V2.2H6.904C8.312 2.2 9.472 2.616 10.384 3.448C11.312 4.264 11.776 5.288 11.776 6.52C11.776 7.256 11.6 7.968 11.248 8.656C10.896 9.328 10.424 9.856 9.832 10.24ZM9.04 6.928C9.04 6.288 8.816 5.768 8.368 5.368C7.936 4.952 7.392 4.744 6.736 4.744H2.848V9.112H6.736C7.408 9.112 7.96 8.904 8.392 8.488C8.824 8.072 9.04 7.552 9.04 6.928ZM6.88 16.36C7.616 16.36 8.216 16.136 8.68 15.688C9.16 15.24 9.4 14.672 9.4 13.984C9.4 13.296 9.16 12.728 8.68 12.28C8.216 11.832 7.616 11.608 6.88 11.608H2.848V16.36H6.88ZM26.2133 12.544C26.2133 12.784 26.1973 13.08 26.1653 13.432H15.6533C15.8133 14.472 16.2453 15.296 16.9493 15.904C17.6693 16.512 18.5573 16.816 19.6133 16.816C20.1253 16.816 20.6053 16.744 21.0533 16.6C21.5013 16.44 21.8933 16.224 22.2293 15.952C22.5813 15.664 22.8693 15.32 23.0933 14.92H25.9013C25.3893 16.296 24.5733 17.376 23.4533 18.16C22.3333 18.928 21.0533 19.312 19.6133 19.312C17.7093 19.312 16.1173 18.664 14.8373 17.368C13.5733 16.072 12.9413 14.456 12.9413 12.52C12.9413 10.584 13.5733 8.968 14.8373 7.672C16.1173 6.376 17.7093 5.728 19.6133 5.728C20.9093 5.728 22.0613 6.04 23.0693 6.664C24.0773 7.272 24.8533 8.096 25.3973 9.136C25.9413 10.16 26.2133 11.296 26.2133 12.544ZM19.6133 8.128C18.6213 8.128 17.7733 8.408 17.0693 8.968C16.3813 9.528 15.9253 10.296 15.7013 11.272H23.5493C23.3893 10.616 23.1253 10.056 22.7573 9.592C22.3893 9.112 21.9333 8.752 21.3893 8.512C20.8613 8.256 20.2693 8.128 19.6133 8.128ZM34.2019 6.664C36.0739 6.664 37.5939 7.24 38.7619 8.392C39.9459 9.544 40.5379 11.04 40.5379 12.88C40.5379 14.784 39.9139 16.336 38.6659 17.536C37.4339 18.72 35.8179 19.312 33.8179 19.312C31.7059 19.312 30.0419 18.656 28.8259 17.344C27.6259 16.016 27.0259 14.2 27.0259 11.896C27.0259 8.744 27.6259 6.352 28.8259 4.72C30.0419 3.072 32.0659 1.904 34.8979 1.216L38.9539 0.231998V2.872L34.9459 3.832C32.1779 4.488 30.5379 5.936 30.0259 8.176C31.1459 7.168 32.5379 6.664 34.2019 6.664ZM33.8179 16.792C34.9699 16.792 35.9219 16.424 36.6739 15.688C37.4419 14.936 37.8259 14 37.8259 12.88C37.8259 12.128 37.6499 11.456 37.2979 10.864C36.9459 10.256 36.4659 9.784 35.8579 9.448C35.2499 9.096 34.5699 8.92 33.8179 8.92C33.0659 8.92 32.3779 9.096 31.7539 9.448C31.1459 9.784 30.6659 10.256 30.3139 10.864C29.9779 11.456 29.8099 12.128 29.8099 12.88C29.8099 14 30.1859 14.936 30.9379 15.688C31.7059 16.424 32.6659 16.792 33.8179 16.792ZM54.2708 12.544C54.2708 12.784 54.2548 13.08 54.2228 13.432H43.7108C43.8708 14.472 44.3028 15.296 45.0068 15.904C45.7268 16.512 46.6148 16.816 47.6708 16.816C48.1828 16.816 48.6628 16.744 49.1108 16.6C49.5588 16.44 49.9508 16.224 50.2868 15.952C50.6388 15.664 50.9268 15.32 51.1508 14.92H53.9588C53.4468 16.296 52.6308 17.376 51.5108 18.16C50.3908 18.928 49.1108 19.312 47.6708 19.312C45.7668 19.312 44.1748 18.664 42.8948 17.368C41.6308 16.072 40.9988 14.456 40.9988 12.52C40.9988 10.584 41.6308 8.968 42.8948 7.672C44.1748 6.376 45.7668 5.728 47.6708 5.728C48.9668 5.728 50.1188 6.04 51.1268 6.664C52.1348 7.272 52.9108 8.096 53.4548 9.136C53.9988 10.16 54.2708 11.296 54.2708 12.544ZM47.6708 8.128C46.6788 8.128 45.8308 8.408 45.1268 8.968C44.4388 9.528 43.9828 10.296 43.7588 11.272H51.6068C51.4468 10.616 51.1828 10.056 50.8148 9.592C50.4468 9.112 49.9908 8.752 49.4468 8.512C48.9188 8.256 48.3268 8.128 47.6708 8.128ZM62.6194 5.728C63.8994 5.728 65.0514 6.024 66.0754 6.616C67.0994 7.192 67.8994 8 68.4754 9.04C69.0514 10.08 69.3394 11.24 69.3394 12.52C69.3394 14.472 68.6994 16.096 67.4194 17.392C66.1554 18.672 64.5554 19.312 62.6194 19.312C60.9554 19.312 59.5234 18.792 58.3234 17.752V23.656H55.6594V6.04H57.4594L57.9634 7.624C59.2114 6.36 60.7634 5.728 62.6194 5.728ZM59.3794 15.568C60.1794 16.368 61.1874 16.768 62.4034 16.768C63.6354 16.768 64.6514 16.368 65.4514 15.568C66.2514 14.752 66.6514 13.736 66.6514 12.52C66.6514 11.304 66.2514 10.296 65.4514 9.496C64.6514 8.68 63.6434 8.272 62.4274 8.272C61.6274 8.272 60.8994 8.456 60.2434 8.824C59.5874 9.192 59.0754 9.704 58.7074 10.36C58.3554 11 58.1794 11.72 58.1794 12.52C58.1794 13.736 58.5794 14.752 59.3794 15.568ZM80.2703 6.04H81.7583V19H79.2143V10.768L72.3023 19H70.7663V6.04H73.3343V14.2L80.2703 6.04ZM93.3554 6.04H96.2114L90.2594 19.24C89.5074 20.888 88.7394 22.032 87.9554 22.672C87.1874 23.328 86.1554 23.656 84.8594 23.656H83.5394V21.256H84.6434C85.4914 21.256 86.1154 21.088 86.5154 20.752C86.9154 20.416 87.3554 19.72 87.8354 18.664L88.1234 18.064L82.4834 6.04H85.3874L89.4914 15.088L93.3554 6.04ZM112.615 19H110.047L108.487 10.168L104.143 18.856H103.591L99.2714 10.168L97.7114 19H95.1434L97.4714 6.04H99.7274L103.879 14.32L108.055 6.04H110.287L112.615 19Z" fill="white"/>
</svg>
