<svg width="32" height="32" viewBox="0 0 32 32" fill="none" xmlns="http://www.w3.org/2000/svg">
<path d="M25.7187 6.81525C23.9062 5.96723 21.9682 5.35093 19.942 5C19.6932 5.44988 19.4025 6.05498 19.2021 6.53633C17.0482 6.21242 14.9142 6.21242 12.8 6.53633C12.5996 6.05498 12.3023 5.44988 12.0513 5C10.0229 5.35093 8.08271 5.9695 6.27022 6.81974C2.61442 12.3441 1.62339 17.7313 2.1189 23.042C4.54363 24.8528 6.89348 25.9527 9.20367 26.6725C9.77407 25.8875 10.2828 25.053 10.721 24.1735C9.88638 23.8563 9.08695 23.4649 8.33159 23.0106C8.53198 22.8621 8.728 22.7069 8.91738 22.5472C13.5246 24.7021 18.5304 24.7021 23.0825 22.5472C23.2741 22.7069 23.4701 22.8621 23.6683 23.0106C22.9107 23.4672 22.1091 23.8585 21.2744 24.1757C21.7127 25.053 22.2192 25.8897 22.7918 26.6747C25.1042 25.9549 27.4563 24.855 29.881 23.042C30.4624 16.8856 28.8878 11.5479 25.7187 6.81525ZM11.3487 19.776C9.96568 19.776 8.83148 18.4849 8.83148 16.9126C8.83148 15.3403 9.94146 14.0469 11.3487 14.0469C12.756 14.0469 13.8902 15.338 13.8659 16.9126C13.8681 18.4849 12.756 19.776 11.3487 19.776ZM20.6512 19.776C19.2682 19.776 18.134 18.4849 18.134 16.9126C18.134 15.3403 19.2439 14.0469 20.6512 14.0469C22.0584 14.0469 23.1926 15.338 23.1684 16.9126C23.1684 18.4849 22.0584 19.776 20.6512 19.776Z" fill="white"/>
</svg>
