<svg width="32" height="32" viewBox="0 0 32 32" fill="none" xmlns="http://www.w3.org/2000/svg">
<path d="M3.7602 2.63707L19.9472 1.44146C21.9356 1.27091 22.4464 1.38588 23.6967 2.2948L28.8638 5.93485C29.7159 6.56088 29.9997 6.73143 29.9997 7.41304V27.3767C29.9997 28.6279 29.5454 29.368 27.9549 29.481L9.15753 30.6195C7.96398 30.676 7.39557 30.5054 6.77042 29.7088L2.96538 24.7609C2.28288 23.8502 2 23.1686 2 22.3717V4.62633C2 3.60332 2.45431 2.75028 3.7602 2.63707Z" fill="white"/>
<path fillRule="evenodd" clipRule="evenodd" d="M19.9472 1.44176L3.7602 2.63736C2.45431 2.75028 2 3.60361 2 4.62633V22.3717C2 23.1683 2.28288 23.8499 2.96538 24.7608L6.77042 29.7085C7.39557 30.5051 7.96398 30.676 9.15753 30.6192L27.9552 29.4812C29.5445 29.368 30 28.6279 30 27.377V7.41334C30 6.76683 29.7446 6.58048 28.9928 6.02875L23.6967 2.2948C22.4467 1.38588 21.9356 1.27091 19.9472 1.44146V1.44176ZM9.58259 7.08657C8.04764 7.18984 7.69952 7.21324 6.82776 6.50442L4.61149 4.74159C4.38623 4.51341 4.49945 4.22877 5.06697 4.17201L20.628 3.03492C21.9347 2.92083 22.6152 3.37631 23.1262 3.77416L25.7951 5.70784C25.9091 5.76547 26.1929 6.10569 25.8515 6.10569L9.78152 7.07311L9.58259 7.08657ZM7.79313 27.2065V10.2589C7.79313 9.51873 8.02044 9.17734 8.70088 9.12L27.1583 8.03937C27.7843 7.98291 28.0672 8.38076 28.0672 9.11971V25.9544C28.0672 26.6945 27.9531 27.3206 26.9313 27.377L9.2687 28.4009C8.24686 28.4574 7.79343 28.1171 7.79343 27.2065H7.79313ZM25.2284 11.1675C25.3416 11.6794 25.2284 12.1914 24.7165 12.2499L23.8652 12.4187V24.9314C23.1259 25.3293 22.4455 25.5566 21.8768 25.5566C20.9679 25.5566 20.7409 25.2719 20.0601 24.4195L14.4931 15.6609V24.1348L16.2542 24.5335C16.2542 24.5335 16.2542 25.5574 14.8334 25.5574L10.9163 25.7847C10.8022 25.5566 10.9163 24.9882 11.3132 24.8749L12.3363 24.5912V13.387L10.9166 13.272C10.8025 12.7601 11.0862 12.0208 11.8819 11.9635L16.0848 11.6806L21.8771 20.5524V12.7036L20.4007 12.5339C20.2866 11.907 20.7409 11.4515 21.3084 11.396L25.2284 11.1675Z" fill="#353535"/>
</svg>
