<svg width="32" height="32" viewBox="0 0 32 32" fill="none" xmlns="http://www.w3.org/2000/svg">
<path d="M27.8367 5.66914C27.4167 5.31298 26.7571 5.26202 26.075 5.53586H26.0739C25.3565 5.8237 5.7677 14.2259 4.97026 14.5692C4.82522 14.6196 3.5585 15.0923 3.68898 16.1451C3.80546 17.0943 4.82354 17.4874 4.94786 17.5327L9.92794 19.2379C10.2583 20.3378 11.4763 24.3955 11.7457 25.2624C11.9137 25.8028 12.1875 26.5129 12.6675 26.6591C13.0886 26.8215 13.5075 26.6731 13.7785 26.4603L16.8232 23.6362L21.7383 27.4694L21.8554 27.5394C22.1891 27.6872 22.5089 27.7611 22.8141 27.7611C23.0499 27.7611 23.2761 27.7169 23.4923 27.6284C24.2287 27.326 24.5232 26.6243 24.554 26.5448L28.2254 7.4617C28.4494 6.4425 28.138 5.92394 27.8367 5.66914ZM14.32 19.92L12.64 24.4L10.96 18.8L23.84 9.28002L14.32 19.92Z" fill="white"/>
</svg>
