<svg width="32" height="32" viewBox="0 0 32 32" fill="none" xmlns="http://www.w3.org/2000/svg">
<path d="M27.8366 5.66914C27.4166 5.31298 26.7569 5.26202 26.0749 5.53586H26.0737C25.3564 5.8237 5.76758 14.2259 4.97014 14.5692C4.8251 14.6196 3.55838 15.0923 3.68886 16.1451C3.80534 17.0943 4.82342 17.4874 4.94774 17.5327L9.92782 19.2379C10.2582 20.3378 11.4762 24.3955 11.7456 25.2624C11.9136 25.8028 12.1874 26.5129 12.6673 26.6591C13.0885 26.8215 13.5073 26.6731 13.7784 26.4603L16.8231 23.6362L21.7382 27.4694L21.8553 27.5394C22.189 27.6872 22.5088 27.7611 22.814 27.7611C23.0497 27.7611 23.276 27.7169 23.4921 27.6284C24.2285 27.326 24.5231 26.6243 24.5539 26.5448L28.2253 7.4617C28.4493 6.4425 28.1379 5.92394 27.8366 5.66914ZM14.3199 19.92L12.6399 24.4L10.9599 18.8L23.8399 9.28002L14.3199 19.92Z" fill="white"/>
</svg>
