<svg width="32" height="32" viewBox="0 0 32 32" fill="none" xmlns="http://www.w3.org/2000/svg">
<path d="M29.8491 22.8182C28.7055 20.7587 25.7599 18.284 24.5438 17.2071C24.211 16.9123 24.1753 16.4022 24.4782 16.0761C26.799 13.5804 28.6553 10.7128 29.2942 8.97999C29.5761 8.21452 28.9925 7.40576 28.1704 7.40576H25.7821C24.995 7.40576 24.5342 7.68851 24.3147 8.13874C22.3859 12.0941 20.7314 13.8058 19.5732 14.8063C18.9248 15.3667 17.9136 14.9025 17.9136 14.0497C17.9136 12.4067 17.9136 10.2829 17.9136 8.77684C17.9136 8.0464 17.3167 7.45543 16.5804 7.45543L12.2176 7.40576C11.6684 7.40576 11.3547 8.02793 11.6843 8.46416L12.4047 9.499C12.6757 9.85753 12.8221 10.2938 12.8221 10.7414L12.8183 15.4017C12.8183 16.2124 11.8364 16.6085 11.2535 16.0405C9.28142 14.1185 7.57026 10.1938 6.95427 8.31705C6.77609 7.77384 6.26764 7.40703 5.6911 7.40576L3.3385 7.40002C2.45587 7.40002 1.81061 8.23745 2.05051 9.0806C4.20012 16.6314 8.6107 23.8148 16.471 24.5937C17.2454 24.6701 17.9136 24.046 17.9136 23.2735V20.8243C17.9136 20.1219 18.464 19.5182 19.1717 19.5003C19.1965 19.4997 19.2213 19.4997 19.2461 19.4997C21.3251 19.4997 23.6535 22.5278 24.4681 23.9441C24.7022 24.3517 25.14 24.6 25.6135 24.6H28.7781C29.7014 24.6 30.2939 23.62 29.8491 22.8182Z" fill="#FFF4F4"/>
</svg>
